<svg xmlns="http://www.w3.org/2000/svg" viewBox="0 0 800 500">
  <!-- Background -->
  <rect width="800" height="500" fill="#ffffff"/>
  
  <!-- Top header / navigation area (Clockify style) -->
  <rect x="0" y="0" width="800" height="60" fill="#03a9f4"/>
  <circle cx="40" cy="30" r="20" fill="#ffffff"/>
  <rect x="75" y="20" width="30" height="20" rx="3" fill="#ffffff" opacity="0.8"/>
  <rect x="115" y="20" width="50" height="20" rx="3" fill="#ffffff" opacity="0.6"/>
  <rect x="175" y="20" width="40" height="20" rx="3" fill="#ffffff" opacity="0.6"/>
  <rect x="680" y="20" width="80" height="20" rx="10" fill="#ffffff"/>
  
  <!-- Sidebar (Clockify style) -->
  <rect x="0" y="60" width="200" height="440" fill="#f5f5f5"/>
  <rect x="20" y="90" width="160" height="30" rx="4" fill="#e0e0e0"/>
  <circle cx="35" cy="105" r="8" fill="#03a9f4"/>
  <rect x="20" y="140" width="160" height="30" rx="4" fill="#e0e0e0"/>
  <circle cx="35" cy="155" r="8" fill="#03a9f4"/>
  <rect x="20" y="190" width="160" height="30" rx="4" fill="#03a9f4"/>
  <circle cx="35" cy="205" r="8" fill="#ffffff"/>
  <rect x="20" y="240" width="160" height="30" rx="4" fill="#e0e0e0"/>
  <circle cx="35" cy="255" r="8" fill="#03a9f4"/>
  <rect x="20" y="290" width="160" height="30" rx="4" fill="#e0e0e0"/>
  <circle cx="35" cy="305" r="8" fill="#03a9f4"/>
  
  <!-- Main content area -->
  <rect x="220" y="80" width="560" height="60" rx="4" fill="#f9f9f9"/>
  
  <!-- Timer area (Clockify style) -->
  <rect x="230" y="90" width="280" height="40" rx="4" fill="#ffffff" stroke="#e0e0e0" stroke-width="1"/>
  <circle cx="250" cy="110" r="12" fill="#03a9f4"/>
  <polygon points="246,104 246,116 258,110" fill="#ffffff"/>
 
  <!-- Time display -->
  <rect x="530" y="90" width="120" height="40" rx="4" fill="#03a9f4"/>
  
  <!-- Timesheet table (Clockify style) -->
  <rect x="220" y="160" width="560" height="320" rx="4" fill="#ffffff" stroke="#e0e0e0" stroke-width="1"/>
  
  <!-- Table header -->
  <rect x="220" y="160" width="560" height="40" rx="4 4 0 0" fill="#f5f5f5"/>
  <rect x="230" y="170" width="20" height="20" rx="2" fill="#e0e0e0"/>
  <rect x="260" y="170" width="150" height="15" rx="2" fill="#e0e0e0"/>
  <rect x="420" y="170" width="100" height="15" rx="2" fill="#e0e0e0"/>
  <rect x="530" y="170" width="100" height="15" rx="2" fill="#e0e0e0"/>
  <rect x="640" y="170" width="80" height="15" rx="2" fill="#e0e0e0"/>
  <rect x="730" y="170" width="40" height="15" rx="2" fill="#e0e0e0"/>
  
  <!-- Time entries (Clockify style) -->
  <!-- Row 1 -->
  <rect x="230" y="210" width="20" height="20" rx="2" fill="#03a9f4" opacity="0.2"/>
  <rect x="260" y="210" width="150" height="20" rx="2" fill="#f5f5f5"/>
  <rect x="420" y="210" width="100" height="20" rx="2" fill="#f5f5f5"/>
  <rect x="530" y="212" width="50" height="15" rx="2" fill="#03a9f4" opacity="0.7"/>
  <rect x="640" y="210" width="80" height="20" rx="2" fill="#f5f5f5"/>
  <circle cx="750" cy="220" r="8" fill="#e0e0e0"/>
  
  <!-- Row 2 -->
  <rect x="230" y="250" width="20" height="20" rx="2" fill="#03a9f4" opacity="0.2"/>
  <rect x="260" y="250" width="150" height="20" rx="2" fill="#f5f5f5"/>
  <rect x="420" y="250" width="100" height="20" rx="2" fill="#f5f5f5"/>
  <rect x="530" y="252" width="80" height="15" rx="2" fill="#03a9f4" opacity="0.7"/>
  <rect x="640" y="250" width="80" height="20" rx="2" fill="#f5f5f5"/>
  <circle cx="750" cy="260" r="8" fill="#e0e0e0"/>
  
  <!-- Row 3 -->
  <rect x="230" y="290" width="20" height="20" rx="2" fill="#03a9f4" opacity="0.2"/>
  <rect x="260" y="290" width="150" height="20" rx="2" fill="#f5f5f5"/>
  <rect x="420" y="290" width="100" height="20" rx="2" fill="#f5f5f5"/>
  <rect x="530" y="292" width="110" height="15" rx="2" fill="#03a9f4" opacity="0.7"/>
  <rect x="640" y="290" width="80" height="20" rx="2" fill="#f5f5f5"/>
  <circle cx="750" cy="300" r="8" fill="#e0e0e0"/>
  
  <!-- Row 4 -->
  <rect x="230" y="330" width="20" height="20" rx="2" fill="#03a9f4" opacity="0.2"/>
  <rect x="260" y="330" width="150" height="20" rx="2" fill="#f5f5f5"/>
  <rect x="420" y="330" width="100" height="20" rx="2" fill="#f5f5f5"/>
  <rect x="530" y="332" width="35" height="15" rx="2" fill="#03a9f4" opacity="0.7"/>
  <rect x="640" y="330" width="80" height="20" rx="2" fill="#f5f5f5"/>
  <circle cx="750" cy="340" r="8" fill="#e0e0e0"/>
  
  <!-- Row 5 -->
  <rect x="230" y="370" width="20" height="20" rx="2" fill="#03a9f4" opacity="0.2"/>
  <rect x="260" y="370" width="150" height="20" rx="2" fill="#f5f5f5"/>
  <rect x="420" y="370" width="100" height="20" rx="2" fill="#f5f5f5"/>
  <rect x="530" y="372" width="70" height="15" rx="2" fill="#03a9f4" opacity="0.7"/>
  <rect x="640" y="370" width="80" height="20" rx="2" fill="#f5f5f5"/>
  <circle cx="750" cy="380" r="8" fill="#e0e0e0"/>
  
  <!-- Row 6 -->
  <rect x="230" y="410" width="20" height="20" rx="2" fill="#03a9f4" opacity="0.2"/>
  <rect x="260" y="410" width="150" height="20" rx="2" fill="#f5f5f5"/>
  <rect x="420" y="410" width="100" height="20" rx="2" fill="#f5f5f5"/>
  <rect x="530" y="412" width="90" height="15" rx="2" fill="#03a9f4" opacity="0.7"/>
  <rect x="640" y="410" width="80" height="20" rx="2" fill="#f5f5f5"/>
  <circle cx="750" cy="420" r="8" fill="#e0e0e0"/>
  
  <!-- Weekly total bar -->
  <rect x="220" y="450" width="560" height="30" rx="4" fill="#f9f9f9"/>
  <rect x="600" y="457" width="100" height="15" rx="2" fill="#03a9f4" opacity="0.5"/>
</svg>
